<svg width="125" height="125" viewBox="0 0 125 125" fill="none" xmlns="http://www.w3.org/2000/svg">
<g clip-path="url(#clip0_2471_5205)">
<path d="M125 62.5C125 27.9822 97.0178 0 62.5 0C27.9822 0 0 27.9822 0 62.5C0 97.0178 27.9822 125 62.5 125C97.0178 125 125 97.0178 125 62.5Z" fill="#242424"/>
<path d="M66.5475 24.8925L72.8399 12.9293L71.193 12.7124L66.0496 22.8855L65.9973 22.8786L63.6643 11.7204L62.0174 11.5034L64.9965 24.6882L66.5475 24.8925Z" fill="#F8F5EE"/>
<path d="M73.4753 26.5647L77.4812 14.5314L75.9801 14.0317L71.9743 26.065L73.4753 26.5647Z" fill="#F8F5EE"/>
<path d="M83.3494 29.6606L77.8104 26.711L79.8594 22.8632L85.1114 25.6599L85.7724 24.4187L80.5204 21.6219L82.4331 18.0301L87.9721 20.9797L88.6413 19.7229L81.7059 16.0298L75.7448 27.2241L82.6802 30.9173L83.3494 29.6606Z" fill="#F8F5EE"/>
<path d="M95.2528 28.5733L95.3149 28.6354L90.2685 37.8209L91.325 38.8774L102.735 32.3519L101.567 31.1835L92.4499 36.7085L92.4002 36.6587L97.7014 27.3179L96.5703 26.1868L87.2295 31.488L87.1797 31.4383L92.7047 22.3212L91.5363 21.1528L85.0108 32.5632L86.0673 33.6197L95.2528 28.5733Z" fill="#F8F5EE"/>
</g>
<defs>
<clipPath id="clip0_2471_5205">
<rect width="125" height="125" fill="white"/>
</clipPath>
</defs>
</svg>
