<svg width="195" height="195" viewBox="0 0 195 195" fill="none" xmlns="http://www.w3.org/2000/svg">
<g clip-path="url(#clip0_2465_4488)">
<path d="M195 97.5C195 43.6522 151.348 0 97.5 0C43.6522 0 0 43.6522 0 97.5C0 151.348 43.6522 195 97.5 195C151.348 195 195 151.348 195 97.5Z" fill="#242424"/>
<path d="M103.826 29.3966L109.465 17.112L107.809 16.984L103.221 27.4192L103.168 27.4152L100.238 16.3988L98.5817 16.2708L102.266 29.276L103.826 29.3966Z" fill="#F8F5EE"/>
<path d="M111.274 30.4377L113.65 17.9797L112.096 17.6833L109.72 30.1413L111.274 30.4377Z" fill="#F8F5EE"/>
<path d="M122.056 31.8496L116.044 30.0482L117.296 25.8723L122.995 27.5803L123.399 26.2333L117.699 24.5252L118.867 20.6271L124.879 22.4285L125.287 21.0646L117.761 18.8091L114.12 30.958L121.647 33.2135L122.056 31.8496Z" fill="#F8F5EE"/>
<path d="M133.482 27.5424L133.56 27.5823L131.603 37.8784L132.935 38.5562L141.766 28.8203L140.294 28.0707L133.333 36.1456L133.271 36.1137L135.422 25.5909L133.996 24.8653L126.754 32.7967L126.691 32.7648L129.124 22.3856L127.651 21.636L124.977 34.5056L126.308 35.1834L133.482 27.5424Z" fill="#F8F5EE"/>
<path d="M148.651 34.0798L140.254 43.5844L141.44 44.6318L144.437 41.2397L146.63 43.1775C148.415 44.7545 150.798 44.6196 152.392 42.8148C153.981 41.0167 153.829 38.6537 152.044 37.0767L148.651 34.0798ZM148.906 36.1811L150.803 37.8571C152.166 39.0616 152.285 40.4802 151.174 41.7383C150.057 43.0029 148.622 43.0605 147.265 41.8618L145.368 40.1858L148.906 36.1811Z" fill="#F8F5EE"/>
<path d="M161.122 46.2702C158.862 43.4749 155.479 43.3168 152.349 45.8478C149.219 48.3788 148.672 51.7144 150.932 54.5097C153.192 57.305 156.569 57.4686 159.699 54.9376C162.829 52.4066 163.383 49.0655 161.122 46.2702ZM159.988 47.1875C161.618 49.2037 161.11 51.7059 158.676 53.6732C156.25 55.635 153.697 55.6085 152.067 53.5924C150.437 51.5762 150.945 49.074 153.371 47.1122C155.804 45.1449 158.358 45.1714 159.988 47.1875Z" fill="#F8F5EE"/>
<path d="M160.802 59.3382L162.296 61.9768L159.267 66.8127L160.18 68.4265L163.315 63.2782C164.535 64.4157 166.2 64.5739 167.738 63.7035C169.726 62.5777 170.238 60.4495 169.034 58.3233L166.692 54.1855L155.655 60.434L156.435 61.8107L160.802 59.3382ZM166.248 56.2551L167.707 58.8326C168.512 60.2552 168.209 61.5578 166.886 62.3069C165.533 63.0733 164.313 62.7033 163.512 61.2883L162.018 58.6497L166.248 56.2551Z" fill="#F8F5EE"/>
<path d="M162.209 73.7337L172.72 69.6994L174.153 73.4329L175.482 72.9227L172.05 63.9788L170.72 64.489L172.153 68.2225L161.642 72.2567L162.209 73.7337Z" fill="#F8F5EE"/>
<path d="M164.307 80.2919L169.66 79.0576L170.922 84.5302L172.292 84.2142L171.03 78.7416L175.278 77.7621L176.652 83.7229L178.04 83.403L176.31 75.9006L163.952 78.7503L164.307 80.2919Z" fill="#F8F5EE"/>
<path d="M179.197 91.9964C178.962 88.4094 176.288 86.3301 172.272 86.594C168.255 86.8578 165.885 89.2683 166.121 92.8553C166.357 96.4423 169.021 98.5221 173.038 98.2583C177.055 97.9945 179.433 95.5834 179.197 91.9964ZM177.741 92.092C177.911 94.6792 176.053 96.4307 172.931 96.6358C169.818 96.8403 167.747 95.3468 167.577 92.7596C167.407 90.1724 169.265 88.4209 172.378 88.2164C175.5 88.0114 177.572 89.5048 177.741 92.092Z" fill="#F8F5EE"/>
<path d="M167.2 108.534L167.789 102.445L178.995 103.529L179.147 101.954L166.524 100.733L165.783 108.397L167.2 108.534Z" fill="#F8F5EE"/>
<path d="M165.087 111.563L177.527 114.034L177.835 112.482L165.395 110.011L165.087 111.563Z" fill="#F8F5EE"/>
<path d="M175.255 123.34C176.403 119.934 174.723 116.993 170.908 115.707C167.094 114.422 163.985 115.748 162.837 119.154C161.688 122.561 163.36 125.499 167.174 126.785C170.989 128.07 174.106 126.747 175.255 123.34ZM173.872 122.874C173.044 125.331 170.659 126.243 167.694 125.244C164.737 124.247 163.391 122.077 164.219 119.62C165.047 117.164 167.432 116.252 170.389 117.248C173.354 118.248 174.7 120.417 173.872 122.874Z" fill="#F8F5EE"/>
</g>
<defs>
<clipPath id="clip0_2465_4488">
<rect width="195" height="195" fill="white"/>
</clipPath>
</defs>
</svg>
